<svg width="116" height="36" viewBox="0 0 116 36" fill="none" xmlns="http://www.w3.org/2000/svg">
<g clip-path="url(#clip0_433_413)">
<path d="M11.336 35.48C9.19198 35.48 7.27198 34.952 5.57598 33.896C3.91198 32.84 2.58398 31.4 1.59198 29.576C0.631978 27.752 0.151978 25.672 0.151978 23.336C0.151978 21 0.631978 18.92 1.59198 17.096C2.58398 15.272 3.91198 13.832 5.57598 12.776C7.27198 11.72 9.19198 11.192 11.336 11.192C12.904 11.192 14.312 11.496 15.56 12.104C16.84 12.712 17.88 13.56 18.68 14.648C19.48 15.704 19.928 16.92 20.024 18.296V28.376C19.928 29.752 19.48 30.984 18.68 32.072C17.912 33.128 16.888 33.96 15.608 34.568C14.328 35.176 12.904 35.48 11.336 35.48ZM12.824 28.856C14.392 28.856 15.656 28.344 16.616 27.32C17.576 26.264 18.056 24.936 18.056 23.336C18.056 22.248 17.832 21.288 17.384 20.456C16.968 19.624 16.36 18.984 15.56 18.536C14.792 18.056 13.896 17.816 12.872 17.816C11.848 17.816 10.936 18.056 10.136 18.536C9.36798 18.984 8.74398 19.624 8.26398 20.456C7.81598 21.288 7.59198 22.248 7.59198 23.336C7.59198 24.392 7.81598 25.336 8.26398 26.168C8.71198 27 9.33598 27.656 10.136 28.136C10.936 28.616 11.832 28.856 12.824 28.856ZM17.768 35V28.712L18.872 23.048L17.768 17.384V11.672H24.968V35H17.768ZM30.1389 35V0.151999H37.4829V35H30.1389ZM56.0945 35.48C54.5265 35.48 53.0865 35.16 51.7745 34.52C50.4625 33.848 49.3905 32.968 48.5585 31.88C47.7265 30.76 47.2465 29.512 47.1185 28.136V18.296C47.2465 16.92 47.7265 15.704 48.5585 14.648C49.3905 13.56 50.4625 12.712 51.7745 12.104C53.0865 11.496 54.5265 11.192 56.0945 11.192C58.3025 11.192 60.2545 11.72 61.9505 12.776C63.6785 13.832 65.0225 15.272 65.9825 17.096C66.9745 18.92 67.4705 21 67.4705 23.336C67.4705 25.672 66.9745 27.752 65.9825 29.576C65.0225 31.4 63.6785 32.84 61.9505 33.896C60.2545 34.952 58.3025 35.48 56.0945 35.48ZM42.6545 35V0.151999H49.9985V17.384L48.7985 23.048L49.9025 28.712V35H42.6545ZM54.7985 28.856C55.8225 28.856 56.7185 28.616 57.4865 28.136C58.2865 27.656 58.9105 27 59.3585 26.168C59.8065 25.336 60.0305 24.392 60.0305 23.336C60.0305 22.248 59.8065 21.288 59.3585 20.456C58.9105 19.624 58.2865 18.984 57.4865 18.536C56.7185 18.056 55.8225 17.816 54.7985 17.816C53.7745 17.816 52.8625 18.056 52.0625 18.536C51.2625 18.984 50.6385 19.624 50.1905 20.456C49.7745 21.288 49.5665 22.248 49.5665 23.336C49.5665 24.424 49.7905 25.384 50.2385 26.216C50.6865 27.048 51.2945 27.704 52.0625 28.184C52.8625 28.632 53.7745 28.856 54.7985 28.856ZM81.5694 35.528C79.4254 35.528 77.5214 35.096 75.8574 34.232C74.2254 33.336 72.9454 32.12 72.0174 30.584C71.0894 29.016 70.6254 27.224 70.6254 25.208V11.672H77.9694V25.112C77.9694 25.912 78.0974 26.6 78.3534 27.176C78.6414 27.752 79.0574 28.2 79.6014 28.52C80.1454 28.84 80.8014 29 81.5694 29C82.6574 29 83.5214 28.664 84.1614 27.992C84.8014 27.288 85.1214 26.328 85.1214 25.112V11.672H92.4654V25.16C92.4654 27.208 92.0014 29.016 91.0734 30.584C90.1454 32.12 88.8654 33.336 87.2334 34.232C85.6014 35.096 83.7134 35.528 81.5694 35.528ZM105.572 35.576C104.196 35.576 102.836 35.4 101.492 35.048C100.18 34.696 98.9484 34.2 97.7964 33.56C96.6764 32.888 95.7164 32.12 94.9164 31.256L99.0924 27.032C99.8604 27.864 100.772 28.52 101.828 29C102.884 29.448 104.036 29.672 105.284 29.672C106.148 29.672 106.804 29.544 107.252 29.288C107.732 29.032 107.972 28.68 107.972 28.232C107.972 27.656 107.684 27.224 107.108 26.936C106.564 26.616 105.86 26.344 104.996 26.12C104.132 25.864 103.22 25.592 102.26 25.304C101.3 25.016 100.388 24.616 99.5244 24.104C98.6604 23.592 97.9564 22.888 97.4124 21.992C96.8684 21.064 96.5964 19.896 96.5964 18.488C96.5964 16.984 96.9804 15.688 97.7484 14.6C98.5164 13.48 99.6044 12.6 101.012 11.96C102.42 11.32 104.068 11 105.956 11C107.94 11 109.764 11.352 111.428 12.056C113.124 12.728 114.5 13.736 115.556 15.08L111.38 19.304C110.644 18.44 109.812 17.832 108.884 17.48C107.988 17.128 107.108 16.952 106.244 16.952C105.412 16.952 104.788 17.08 104.372 17.336C103.956 17.56 103.748 17.896 103.748 18.344C103.748 18.824 104.02 19.208 104.564 19.496C105.108 19.784 105.812 20.04 106.676 20.264C107.54 20.488 108.452 20.76 109.412 21.08C110.372 21.4 111.284 21.832 112.148 22.376C113.012 22.92 113.716 23.656 114.26 24.584C114.804 25.48 115.076 26.664 115.076 28.136C115.076 30.408 114.212 32.216 112.484 33.56C110.788 34.904 108.484 35.576 105.572 35.576Z" fill="white"/>
</g>
<defs>
<clipPath id="clip0_433_413">
<rect width="116" height="36" fill="white"/>
</clipPath>
</defs>
</svg>
